<svg width="43" height="24" viewBox="0 0 43 24" fill="none" xmlns="http://www.w3.org/2000/svg">
<path d="M0 2C0 0.89543 0.895431 0 2 0H41C42.1046 0 43 0.895431 43 2V23H0V2Z" fill="#CCE5F3"/>
<path d="M23.334 9.55859C24.2226 10.6307 24.2226 12.3689 23.334 13.441" stroke="#57534F" stroke-width="0.65" stroke-miterlimit="2" stroke-linecap="round"/>
<path d="M24.3945 8.27979C25.8687 10.0585 25.8687 12.9423 24.3945 14.721" stroke="#57534F" stroke-width="0.65" stroke-miterlimit="2" stroke-linecap="round"/>
<path d="M25.4551 7C27.5151 9.4853 27.5151 13.5148 25.4551 16" stroke="#57534F" stroke-width="0.65" stroke-miterlimit="2" stroke-linecap="round"/>
<path d="M17.9897 9.46265H16.8154C16.3658 9.46265 16 9.90401 16 10.4466V12.5547C16 13.0972 16.3658 13.5386 16.8154 13.5386H17.9897V9.46265Z" fill="#57534F"/>
<path d="M22.0117 7.36853C21.8675 7.27047 21.6966 7.27395 21.5551 7.37773L18.7124 9.46209H18.7109V13.538H18.7124L21.5551 15.6223C21.628 15.6758 21.7089 15.7026 21.7898 15.7026C21.8658 15.7026 21.9419 15.679 22.0117 15.6316C22.1561 15.5336 22.2423 15.3558 22.2423 15.1561V7.84407C22.2423 7.64426 22.1561 7.4665 22.0117 7.36853Z" fill="#57534F"/>
<rect y="23" width="12" height="1" fill="#007EC1"/>
<rect x="12" y="23" width="31" height="1" fill="#EBE1D6"/>
</svg>
