<svg width="43" height="22" viewBox="0 0 43 22" fill="none" xmlns="http://www.w3.org/2000/svg">
<rect width="43" height="21.3" rx="2" fill="white"/>
<rect width="43" height="21.3" rx="2" fill="#007EC1" fill-opacity="0.2"/>
<circle cx="10.5" cy="5.5" r="1" fill="#007EC1" stroke="#007EC1"/>
<g clip-path="url(#clip0_22_1055)">
<path d="M10.2341 5.98675L9.86546 5.61806C9.82402 5.57662 9.75709 5.57662 9.71565 5.61806C9.67421 5.6595 9.67421 5.72644 9.71565 5.76787L10.1598 6.212C10.2012 6.25344 10.2681 6.25344 10.3096 6.212L11.4337 5.08787C11.4751 5.04644 11.4751 4.9795 11.4337 4.93806C11.3923 4.89662 11.3253 4.89662 11.2839 4.93806L10.2341 5.98675Z" fill="white"/>
</g>
<rect x="14" y="5.90002" width="10" height="1" fill="#007EC1"/>
<rect x="14" y="4.09998" width="20" height="1" fill="#007EC1"/>
<circle cx="10.5" cy="10.3" r="1.35" stroke="#007EC1" stroke-width="0.3"/>
<rect x="14" y="10.7001" width="10" height="1" fill="#007EC1"/>
<rect x="14" y="8.90002" width="20" height="1" fill="#007EC1"/>
<circle cx="10.5" cy="15.1" r="1.35" stroke="#007EC1" stroke-width="0.3"/>
<rect x="14" y="15.5" width="13.3333" height="1" fill="#007EC1"/>
<rect x="14" y="13.7" width="20" height="1" fill="#007EC1"/>
<defs>
<clipPath id="clip0_22_1055">
<rect width="2.55" height="2.55" fill="white" transform="translate(9.2998 4.30005)"/>
</clipPath>
</defs>
</svg>
