<svg width="43" height="20" viewBox="0 0 43 20" fill="none" xmlns="http://www.w3.org/2000/svg">
<rect x="0.45" y="0.45" width="42.1" height="18.6934" rx="1.55" stroke="#007EC1" stroke-width="0.9"/>
<path d="M8.68568 7.31644C8.72964 7.31644 8.76961 7.30541 8.80558 7.28335C8.84155 7.26129 8.86953 7.23235 8.88951 7.19654C8.9095 7.16057 8.92053 7.12156 8.9226 7.07952C8.92468 7.03747 8.91365 6.99655 8.88951 6.95674L6.67134 3.1199C6.64736 3.07993 6.61634 3.04996 6.5783 3.02998C6.54025 3.00999 6.50132 3 6.46151 3C6.42154 3 6.38254 3.00999 6.34449 3.02998C6.30644 3.04996 6.2755 3.07993 6.25168 3.1199L4.03351 6.95674C4.00953 6.99671 3.9985 7.03771 4.00042 7.07976C4.00234 7.1218 4.01337 7.16073 4.03351 7.19654C4.0535 7.23251 4.08147 7.26153 4.11744 7.28359C4.15341 7.30565 4.19338 7.3166 4.23734 7.31644H8.68568ZM6.46151 6.59704C6.39357 6.59704 6.33657 6.57402 6.29053 6.52797C6.24449 6.48193 6.22155 6.42502 6.22171 6.35723C6.22171 6.28929 6.24473 6.2323 6.29077 6.18626C6.33681 6.14021 6.39373 6.11727 6.46151 6.11743C6.52946 6.11743 6.58645 6.14045 6.63249 6.1865C6.67853 6.23254 6.70147 6.28945 6.70131 6.35723C6.70131 6.42518 6.67829 6.48217 6.63225 6.52821C6.58621 6.57426 6.5293 6.5972 6.46151 6.59704ZM6.46151 5.87763C6.39357 5.87763 6.33657 5.85461 6.29053 5.80857C6.24449 5.76252 6.22155 5.70561 6.22171 5.63783V4.91842C6.22171 4.85048 6.24473 4.79348 6.29077 4.74744C6.33681 4.7014 6.39373 4.67846 6.46151 4.67862C6.52946 4.67862 6.58645 4.70164 6.63249 4.74768C6.67853 4.79372 6.70147 4.85064 6.70131 4.91842V5.63783C6.70131 5.70577 6.67829 5.76276 6.63225 5.80881C6.58621 5.85485 6.5293 5.87779 6.46151 5.87763Z" fill="#57534F"/>
<rect x="4" y="10.3164" width="24.1779" height="2.63846" fill="#80BEE0"/>
<rect x="4" y="13.9548" width="15.3169" height="2.63846" fill="#80BEE0"/>
</svg>
