<svg width="32" height="32" viewBox="0 0 32 32" fill="none" xmlns="http://www.w3.org/2000/svg">
<rect width="32" height="32" rx="2" fill="#CCE5F3"/>
<rect x="3.45" y="8.45" width="25.1" height="15.1" rx="1.55" stroke="#007EC1" stroke-width="0.9"/>
<path d="M11.6857 15.3164C11.7296 15.3164 11.7696 15.3054 11.8056 15.2834C11.8416 15.2613 11.8695 15.2324 11.8895 15.1965C11.9095 15.1606 11.9205 15.1216 11.9226 15.0795C11.9247 15.0375 11.9137 14.9965 11.8895 14.9567L9.67134 11.1199C9.64736 11.0799 9.61634 11.05 9.5783 11.03C9.54025 11.01 9.50132 11 9.46151 11C9.42154 11 9.38254 11.01 9.34449 11.03C9.30644 11.05 9.2755 11.0799 9.25168 11.1199L7.03351 14.9567C7.00953 14.9967 6.9985 15.0377 7.00042 15.0798C7.00234 15.1218 7.01337 15.1607 7.03351 15.1965C7.05349 15.2325 7.08147 15.2615 7.11744 15.2836C7.15341 15.3057 7.19338 15.3166 7.23734 15.3164H11.6857ZM9.46151 14.597C9.39357 14.597 9.33657 14.574 9.29053 14.528C9.24449 14.4819 9.22155 14.425 9.22171 14.3572C9.22171 14.2893 9.24473 14.2323 9.29077 14.1863C9.33681 14.1402 9.39373 14.1173 9.46151 14.1174C9.52946 14.1174 9.58645 14.1405 9.63249 14.1865C9.67853 14.2325 9.70147 14.2895 9.70131 14.3572C9.70131 14.4252 9.67829 14.4822 9.63225 14.5282C9.58621 14.5743 9.5293 14.5972 9.46151 14.597ZM9.46151 13.8776C9.39357 13.8776 9.33657 13.8546 9.29053 13.8086C9.24449 13.7625 9.22155 13.7056 9.22171 13.6378V12.9184C9.22171 12.8505 9.24473 12.7935 9.29077 12.7474C9.33681 12.7014 9.39373 12.6785 9.46151 12.6786C9.52946 12.6786 9.58645 12.7016 9.63249 12.7477C9.67853 12.7937 9.70147 12.8506 9.70131 12.9184V13.6378C9.70131 13.7058 9.67829 13.7628 9.63225 13.8088C9.58621 13.8548 9.5293 13.8778 9.46151 13.8776Z" fill="#57534F"/>
<rect x="7" y="16.3164" width="14" height="2" fill="#80BEE0"/>
<rect x="7" y="19.3164" width="11" height="2" fill="#80BEE0"/>
</svg>
