<svg width="40" height="20" viewBox="0 0 40 20" fill="none" xmlns="http://www.w3.org/2000/svg">
<path d="M0.47366 4.34494H1.30509V1.90357L0.531608 2.09505V1.42487L1.31012 1.23843H2.02817V4.34494H2.8596V5H0.47366V4.34494ZM1.09345 12.3449H2.6782V13H0.289739V12.3651L0.692854 11.9368C1.17155 11.4279 1.46213 11.1146 1.56459 10.997C1.69056 10.8526 1.78126 10.7249 1.83669 10.6141C1.89212 10.5015 1.91984 10.3907 1.91984 10.2815C1.91984 10.1135 1.86861 9.9842 1.76615 9.89349C1.66537 9.80111 1.52176 9.75492 1.33532 9.75492C1.20263 9.75492 1.05314 9.7818 0.886853 9.83555C0.722248 9.88762 0.550084 9.96404 0.370362 10.0648V9.37196C0.550084 9.30646 0.725607 9.25691 0.896931 9.22332C1.06993 9.18804 1.23538 9.17041 1.39327 9.17041C1.79134 9.17041 2.10376 9.26363 2.33051 9.45007C2.55894 9.63483 2.67316 9.88762 2.67316 10.2084C2.67316 10.3562 2.64796 10.4948 2.59757 10.6241C2.54886 10.7535 2.46404 10.8971 2.34311 11.055C2.25409 11.1692 2.0097 11.4262 1.60994 11.8259C1.39327 12.0426 1.2211 12.2156 1.09345 12.3449ZM9.32708 10.1782H9.94183L10.2769 12.3399L10.5818 10.9164H11.1789L11.4787 12.3399L11.8188 10.1782H12.4336L11.9221 13H11.2217L10.8791 11.5337L10.5389 13H9.83853L9.32708 10.1782ZM13.9881 10.7098C13.8117 10.7098 13.6732 10.7879 13.5724 10.9441C13.4716 11.0986 13.4212 11.3145 13.4212 11.5916C13.4212 11.8688 13.4716 12.0854 13.5724 12.2416C13.6732 12.3962 13.8117 12.4734 13.9881 12.4734C14.1661 12.4734 14.3055 12.3962 14.4063 12.2416C14.5071 12.0854 14.5575 11.8688 14.5575 11.5916C14.5575 11.3145 14.5071 11.0986 14.4063 10.9441C14.3055 10.7879 14.1661 10.7098 13.9881 10.7098ZM12.683 11.5916C12.683 11.1364 12.8006 10.7761 13.0357 10.5108C13.2726 10.2437 13.59 10.1102 13.9881 10.1102C14.3878 10.1102 14.7053 10.2437 14.9405 10.5108C15.1773 10.7761 15.2957 11.1364 15.2957 11.5916C15.2957 12.0468 15.1773 12.4079 14.9405 12.675C14.7053 12.9404 14.3878 13.0731 13.9881 13.0731C13.59 13.0731 13.2726 12.9404 13.0357 12.675C12.8006 12.4079 12.683 12.0468 12.683 11.5916ZM18.445 10.9567C18.3644 10.8828 18.2695 10.8274 18.1603 10.7904C18.0528 10.7535 17.9344 10.735 17.8051 10.735C17.6489 10.735 17.512 10.7627 17.3944 10.8181C17.2785 10.8719 17.1887 10.9508 17.1248 11.055C17.0845 11.1188 17.056 11.1961 17.0392 11.2868C17.0241 11.3775 17.0165 11.5152 17.0165 11.7V13H16.2783V10.1782H17.0165V10.6166C17.0887 10.4553 17.1996 10.331 17.3491 10.2437C17.4986 10.1547 17.6732 10.1102 17.8731 10.1102C17.9739 10.1102 18.0722 10.1228 18.1679 10.148C18.2653 10.1715 18.3577 10.2067 18.445 10.2538V10.9567ZM19.6292 11.8234V9.64659H18.8809V9.07971H20.3674V11.8234C20.3674 12.0451 20.4018 12.2022 20.4707 12.2945C20.5396 12.3869 20.6563 12.4331 20.8209 12.4331H21.4104V13H20.6143C20.2633 13 20.0113 12.9093 19.8585 12.7279C19.7056 12.5465 19.6292 12.245 19.6292 11.8234ZM23.7561 10.5788V9.07971H24.4918V13H23.7561V12.5818C23.6771 12.7447 23.5747 12.8673 23.4487 12.9496C23.3244 13.0319 23.1774 13.0731 23.0078 13.0731C22.6853 13.0731 22.435 12.9437 22.257 12.6851C22.0789 12.4264 21.9899 12.0619 21.9899 11.5916C21.9899 11.1146 22.0798 10.7484 22.2595 10.4931C22.4409 10.2378 22.6987 10.1102 23.033 10.1102C23.1842 10.1102 23.3194 10.1496 23.4386 10.2286C23.5596 10.3058 23.6654 10.4226 23.7561 10.5788ZM22.7281 11.5967C22.7281 11.8688 22.7735 12.0821 22.8642 12.2366C22.9549 12.3911 23.08 12.4684 23.2396 12.4684C23.3992 12.4684 23.5251 12.3911 23.6175 12.2366C23.7099 12.0821 23.7561 11.8688 23.7561 11.5967C23.7561 11.3246 23.7099 11.1112 23.6175 10.9567C23.5251 10.8022 23.3992 10.7249 23.2396 10.7249C23.08 10.7249 22.9549 10.8022 22.8642 10.9567C22.7735 11.1112 22.7281 11.3246 22.7281 11.5967ZM27.2002 9.08474C26.9785 9.48618 26.8139 9.87502 26.7064 10.2513C26.5989 10.6275 26.5451 11.0037 26.5451 11.38C26.5451 11.7529 26.5989 12.1291 26.7064 12.5087C26.8139 12.8866 26.9785 13.2771 27.2002 13.6803H26.6258C26.3587 13.2923 26.1605 12.9101 26.0312 12.5339C25.9018 12.156 25.8372 11.7713 25.8372 11.38C25.8372 10.9903 25.9018 10.6065 26.0312 10.2286C26.1622 9.84898 26.3604 9.4677 26.6258 9.08474H27.2002ZM28.7597 9.08474H29.3342C29.5996 9.4677 29.7969 9.84898 29.9263 10.2286C30.0573 10.6065 30.1228 10.9903 30.1228 11.38C30.1228 11.7713 30.0581 12.156 29.9288 12.5339C29.7994 12.9101 29.6012 13.2923 29.3342 13.6803H28.7597C28.9815 13.2771 29.1461 12.8866 29.2536 12.5087C29.3611 12.1291 29.4148 11.7529 29.4148 11.38C29.4148 11.0037 29.3611 10.6275 29.2536 10.2513C29.1461 9.87502 28.9815 9.48618 28.7597 9.08474ZM32.2215 12.0754H33.0605V12.7581L32.5667 13.7231H32.025L32.2215 12.7581V12.0754ZM32.2215 10.3218H33.0605V11.2414H32.2215V10.3218Z" fill="#57534F"/>
<path d="M12.0254 3.16835V5H11.2923V3.28172C11.2923 3.07848 11.2629 2.9332 11.2041 2.84585C11.147 2.75851 11.0529 2.71484 10.9219 2.71484C10.7875 2.71484 10.6825 2.77447 10.607 2.89372C10.5314 3.0113 10.4936 3.17506 10.4936 3.38502V5H9.76042V1.07971H10.4936V2.60147C10.5457 2.44526 10.6347 2.32432 10.7607 2.23866C10.8866 2.153 11.0386 2.11017 11.2167 2.11017C11.4837 2.11017 11.6853 2.19919 11.8213 2.37723C11.9574 2.5536 12.0254 2.8173 12.0254 3.16835ZM15.2126 4.86143C15.0412 4.93197 14.8665 4.98488 14.6885 5.02016C14.5105 5.05543 14.3223 5.07306 14.1241 5.07306C13.6522 5.07306 13.291 4.94709 13.0408 4.69514C12.7922 4.44152 12.6679 4.07703 12.6679 3.60169C12.6679 3.14147 12.788 2.77783 13.0282 2.51076C13.2684 2.2437 13.5959 2.11017 14.0108 2.11017C14.429 2.11017 14.7532 2.23446 14.9833 2.48305C15.2151 2.72996 15.331 3.07848 15.331 3.52863V3.82845H13.4187C13.4204 4.05016 13.4859 4.21561 13.6152 4.32478C13.7445 4.43396 13.9377 4.48855 14.1947 4.48855C14.3643 4.48855 14.5315 4.46419 14.6961 4.41548C14.8607 4.36677 15.0328 4.28951 15.2126 4.18369V4.86143ZM14.5877 3.27416C14.5844 3.07932 14.534 2.93236 14.4366 2.83326C14.3408 2.73248 14.1989 2.68209 14.0108 2.68209C13.8411 2.68209 13.7059 2.73416 13.6051 2.8383C13.5044 2.94075 13.4447 3.08688 13.4263 3.27668L14.5877 3.27416ZM16.5202 3.82341V1.64659H15.7719V1.07971H17.2584V3.82341C17.2584 4.04512 17.2928 4.20217 17.3617 4.29455C17.4305 4.38693 17.5473 4.43312 17.7119 4.43312H18.3014V5H17.5053C17.1542 5 16.9023 4.9093 16.7494 4.7279C16.5966 4.5465 16.5202 4.245 16.5202 3.82341ZM19.6292 3.82341V1.64659H18.8809V1.07971H20.3674V3.82341C20.3674 4.04512 20.4018 4.20217 20.4707 4.29455C20.5396 4.38693 20.6563 4.43312 20.8209 4.43312H21.4104V5H20.6143C20.2633 5 20.0113 4.9093 19.8585 4.7279C19.7056 4.5465 19.6292 4.245 19.6292 3.82341ZM23.3152 2.7098C23.1388 2.7098 23.0002 2.78791 22.8995 2.94411C22.7987 3.09864 22.7483 3.31448 22.7483 3.59162C22.7483 3.86876 22.7987 4.08543 22.8995 4.24164C23.0002 4.39617 23.1388 4.47343 23.3152 4.47343C23.4932 4.47343 23.6326 4.39617 23.7334 4.24164C23.8342 4.08543 23.8846 3.86876 23.8846 3.59162C23.8846 3.31448 23.8342 3.09864 23.7334 2.94411C23.6326 2.78791 23.4932 2.7098 23.3152 2.7098ZM22.0101 3.59162C22.0101 3.13643 22.1277 2.77615 22.3628 2.51076C22.5996 2.2437 22.9171 2.11017 23.3152 2.11017C23.7149 2.11017 24.0324 2.2437 24.2675 2.51076C24.5044 2.77615 24.6228 3.13643 24.6228 3.59162C24.6228 4.0468 24.5044 4.40792 24.2675 4.67499C24.0324 4.94037 23.7149 5.07306 23.3152 5.07306C22.9171 5.07306 22.5996 4.94037 22.3628 4.67499C22.1277 4.40792 22.0101 4.0468 22.0101 3.59162ZM27.2002 1.08474C26.9785 1.48618 26.8139 1.87502 26.7064 2.25126C26.5989 2.6275 26.5451 3.00374 26.5451 3.37998C26.5451 3.75286 26.5989 4.1291 26.7064 4.5087C26.8139 4.88662 26.9785 5.27714 27.2002 5.68026H26.6258C26.3587 5.29226 26.1605 4.91014 26.0312 4.5339C25.9018 4.15598 25.8372 3.77134 25.8372 3.37998C25.8372 2.9903 25.9018 2.6065 26.0312 2.22858C26.1622 1.84898 26.3604 1.4677 26.6258 1.08474H27.2002ZM28.7597 1.08474H29.3342C29.5996 1.4677 29.7969 1.84898 29.9263 2.22858C30.0573 2.6065 30.1228 2.9903 30.1228 3.37998C30.1228 3.77134 30.0581 4.15598 29.9288 4.5339C29.7994 4.91014 29.6012 5.29226 29.3342 5.68026H28.7597C28.9815 5.27714 29.1461 4.88662 29.2536 4.5087C29.3611 4.1291 29.4148 3.75286 29.4148 3.37998C29.4148 3.00374 29.3611 2.6275 29.2536 2.25126C29.1461 1.87502 28.9815 1.48618 28.7597 1.08474ZM32.2215 4.07535H33.0605V4.75813L32.5667 5.72309H32.025L32.2215 4.75813V4.07535ZM32.2215 2.3218H33.0605V3.24141H32.2215V2.3218Z" fill="#007EC1"/>
</svg>
