<svg width="32" height="32" viewBox="0 0 32 32" fill="none" xmlns="http://www.w3.org/2000/svg">
<rect width="32" height="32" rx="2" fill="#CCE5F3"/>
<path d="M5.29375 14.5937H5.80938V13.0797L5.32969 13.1984V12.7828L5.8125 12.6672H6.25781V14.5937H6.77344V15H5.29375V14.5937ZM5.67813 19.5937H6.66094V20H5.17969V19.6062L5.42969 19.3406C5.72656 19.025 5.90677 18.8307 5.97031 18.7578C6.04844 18.6682 6.10469 18.5891 6.13906 18.5203C6.17344 18.4505 6.19063 18.3818 6.19063 18.3141C6.19063 18.2099 6.15885 18.1297 6.09531 18.0734C6.03281 18.0161 5.94375 17.9875 5.82813 17.9875C5.74583 17.9875 5.65313 18.0042 5.55 18.0375C5.44792 18.0698 5.34115 18.1172 5.22969 18.1797V17.75C5.34115 17.7094 5.45 17.6786 5.55625 17.6578C5.66354 17.6359 5.76615 17.625 5.86406 17.625C6.11094 17.625 6.30469 17.6828 6.44531 17.7984C6.58698 17.913 6.65781 18.0698 6.65781 18.2687C6.65781 18.3604 6.64219 18.4464 6.61094 18.5266C6.58073 18.6068 6.52813 18.6958 6.45313 18.7937C6.39792 18.8646 6.24635 19.024 5.99844 19.2719C5.86406 19.4062 5.75729 19.5135 5.67813 19.5937ZM10.7844 18.25H11.1656L11.3734 19.5906L11.5625 18.7078H11.9328L12.1188 19.5906L12.3297 18.25H12.7109L12.3938 20H11.9594L11.7469 19.0906L11.5359 20H11.1016L10.7844 18.25ZM13.675 18.5797C13.5656 18.5797 13.4797 18.6281 13.4172 18.725C13.3547 18.8208 13.3234 18.9547 13.3234 19.1266C13.3234 19.2984 13.3547 19.4328 13.4172 19.5297C13.4797 19.6255 13.5656 19.6734 13.675 19.6734C13.7854 19.6734 13.8719 19.6255 13.9344 19.5297C13.9969 19.4328 14.0281 19.2984 14.0281 19.1266C14.0281 18.9547 13.9969 18.8208 13.9344 18.725C13.8719 18.6281 13.7854 18.5797 13.675 18.5797ZM12.8656 19.1266C12.8656 18.8443 12.9385 18.6208 13.0844 18.4562C13.2313 18.2906 13.4281 18.2078 13.675 18.2078C13.9229 18.2078 14.1198 18.2906 14.2656 18.4562C14.4125 18.6208 14.4859 18.8443 14.4859 19.1266C14.4859 19.4089 14.4125 19.6328 14.2656 19.7984C14.1198 19.963 13.9229 20.0453 13.675 20.0453C13.4281 20.0453 13.2313 19.963 13.0844 19.7984C12.9385 19.6328 12.8656 19.4089 12.8656 19.1266ZM16.4391 18.7328C16.3891 18.687 16.3302 18.6526 16.2625 18.6297C16.1958 18.6068 16.1224 18.5953 16.0422 18.5953C15.9453 18.5953 15.8604 18.6125 15.7875 18.6469C15.7156 18.6802 15.6599 18.7292 15.6203 18.7937C15.5953 18.8333 15.5776 18.8812 15.5672 18.9375C15.5578 18.9937 15.5531 19.0792 15.5531 19.1937V20H15.0953V18.25H15.5531V18.5219C15.5979 18.4219 15.6667 18.3448 15.7594 18.2906C15.8521 18.2354 15.9604 18.2078 16.0844 18.2078C16.1469 18.2078 16.2078 18.2156 16.2672 18.2312C16.3276 18.2458 16.3849 18.2677 16.4391 18.2969V18.7328ZM17.1734 19.2703V17.9203H16.7094V17.5687H17.6313V19.2703C17.6313 19.4078 17.6526 19.5052 17.6953 19.5625C17.738 19.6198 17.8104 19.6484 17.9125 19.6484H18.2781V20H17.7844C17.5667 20 17.4104 19.9437 17.3156 19.8312C17.2208 19.7187 17.1734 19.5318 17.1734 19.2703ZM19.7328 18.4984V17.5687H20.1891V20H19.7328V19.7406C19.6839 19.8417 19.6203 19.9177 19.5422 19.9687C19.4651 20.0198 19.374 20.0453 19.2687 20.0453C19.0687 20.0453 18.9135 19.9651 18.8031 19.8047C18.6927 19.6443 18.6375 19.4182 18.6375 19.1266C18.6375 18.8307 18.6932 18.6036 18.8047 18.4453C18.9172 18.287 19.0771 18.2078 19.2844 18.2078C19.3781 18.2078 19.462 18.2323 19.5359 18.2812C19.6109 18.3292 19.6766 18.4016 19.7328 18.4984ZM19.0953 19.1297C19.0953 19.2984 19.1234 19.4307 19.1797 19.5266C19.2359 19.6224 19.3135 19.6703 19.4125 19.6703C19.5115 19.6703 19.5896 19.6224 19.6469 19.5266C19.7042 19.4307 19.7328 19.2984 19.7328 19.1297C19.7328 18.9609 19.7042 18.8286 19.6469 18.7328C19.5896 18.637 19.5115 18.5891 19.4125 18.5891C19.3135 18.5891 19.2359 18.637 19.1797 18.7328C19.1234 18.8286 19.0953 18.9609 19.0953 19.1297ZM21.8688 17.5719C21.7313 17.8208 21.6292 18.062 21.5625 18.2953C21.4958 18.5286 21.4625 18.762 21.4625 18.9953C21.4625 19.2266 21.4958 19.4599 21.5625 19.6953C21.6292 19.9297 21.7313 20.1719 21.8688 20.4219H21.5125C21.3469 20.1813 21.224 19.9443 21.1438 19.7109C21.0635 19.4766 21.0234 19.238 21.0234 18.9953C21.0234 18.7536 21.0635 18.5156 21.1438 18.2812C21.225 18.0458 21.3479 17.8094 21.5125 17.5719H21.8688ZM22.8359 17.5719H23.1922C23.3568 17.8094 23.4792 18.0458 23.5594 18.2812C23.6406 18.5156 23.6812 18.7536 23.6812 18.9953C23.6812 19.238 23.6411 19.4766 23.5609 19.7109C23.4807 19.9443 23.3578 20.1813 23.1922 20.4219H22.8359C22.9734 20.1719 23.0755 19.9297 23.1422 19.6953C23.2089 19.4599 23.2422 19.2266 23.2422 18.9953C23.2422 18.762 23.2089 18.5286 23.1422 18.2953C23.0755 18.062 22.9734 17.8208 22.8359 17.5719ZM24.9828 19.4266H25.5031V19.85L25.1969 20.4484H24.8609L24.9828 19.85V19.4266ZM24.9828 18.3391H25.5031V18.9094H24.9828V18.3391Z" fill="#57534F"/>
<path d="M12.4578 13.8641V15H12.0031V13.9344C12.0031 13.8083 11.9849 13.7182 11.9484 13.6641C11.913 13.6099 11.8547 13.5828 11.7734 13.5828C11.6901 13.5828 11.625 13.6198 11.5781 13.6937C11.5313 13.7667 11.5078 13.8682 11.5078 13.9984V15H11.0531V12.5687H11.5078V13.5125C11.5401 13.4156 11.5953 13.3406 11.6734 13.2875C11.7516 13.2344 11.8458 13.2078 11.9563 13.2078C12.1219 13.2078 12.2469 13.263 12.3313 13.3734C12.4156 13.4828 12.4578 13.6464 12.4578 13.8641ZM14.4344 14.9141C14.3281 14.9578 14.2198 14.9906 14.1094 15.0125C13.999 15.0344 13.8823 15.0453 13.7594 15.0453C13.4667 15.0453 13.2427 14.9672 13.0875 14.8109C12.9333 14.6536 12.8563 14.4276 12.8563 14.1328C12.8563 13.8474 12.9307 13.6219 13.0797 13.4562C13.2286 13.2906 13.4318 13.2078 13.6891 13.2078C13.9484 13.2078 14.1495 13.2849 14.2922 13.4391C14.4359 13.5922 14.5078 13.8083 14.5078 14.0875V14.2734H13.3219C13.3229 14.4109 13.3635 14.5135 13.4438 14.5812C13.524 14.649 13.6438 14.6828 13.8031 14.6828C13.9083 14.6828 14.012 14.6677 14.1141 14.6375C14.2161 14.6073 14.3229 14.5594 14.4344 14.4937V14.9141ZM14.0469 13.9297C14.0448 13.8089 14.0135 13.7177 13.9531 13.6562C13.8938 13.5937 13.8057 13.5625 13.6891 13.5625C13.5839 13.5625 13.5 13.5948 13.4375 13.6594C13.375 13.7229 13.338 13.8135 13.3266 13.9312L14.0469 13.9297ZM15.2453 14.2703V12.9203H14.7813V12.5687H15.7031V14.2703C15.7031 14.4078 15.7245 14.5052 15.7672 14.5625C15.8099 14.6198 15.8823 14.6484 15.9844 14.6484H16.35V15H15.8563C15.6385 15 15.4823 14.9437 15.3875 14.8312C15.2927 14.7187 15.2453 14.5318 15.2453 14.2703ZM17.1734 14.2703V12.9203H16.7094V12.5687H17.6313V14.2703C17.6313 14.4078 17.6526 14.5052 17.6953 14.5625C17.738 14.6198 17.8104 14.6484 17.9125 14.6484H18.2781V15H17.7844C17.5667 15 17.4104 14.9437 17.3156 14.8312C17.2208 14.7187 17.1734 14.5318 17.1734 14.2703ZM19.4594 13.5797C19.35 13.5797 19.2641 13.6281 19.2016 13.725C19.1391 13.8208 19.1078 13.9547 19.1078 14.1266C19.1078 14.2984 19.1391 14.4328 19.2016 14.5297C19.2641 14.6255 19.35 14.6734 19.4594 14.6734C19.5698 14.6734 19.6562 14.6255 19.7187 14.5297C19.7812 14.4328 19.8125 14.2984 19.8125 14.1266C19.8125 13.9547 19.7812 13.8208 19.7187 13.725C19.6562 13.6281 19.5698 13.5797 19.4594 13.5797ZM18.65 14.1266C18.65 13.8443 18.7229 13.6208 18.8687 13.4562C19.0156 13.2906 19.2125 13.2078 19.4594 13.2078C19.7073 13.2078 19.9042 13.2906 20.05 13.4562C20.1969 13.6208 20.2703 13.8443 20.2703 14.1266C20.2703 14.4089 20.1969 14.6328 20.05 14.7984C19.9042 14.963 19.7073 15.0453 19.4594 15.0453C19.2125 15.0453 19.0156 14.963 18.8687 14.7984C18.7229 14.6328 18.65 14.4089 18.65 14.1266ZM21.8688 12.5719C21.7313 12.8208 21.6292 13.062 21.5625 13.2953C21.4958 13.5286 21.4625 13.762 21.4625 13.9953C21.4625 14.2266 21.4958 14.4599 21.5625 14.6953C21.6292 14.9297 21.7313 15.1719 21.8688 15.4219H21.5125C21.3469 15.1813 21.224 14.9443 21.1438 14.7109C21.0635 14.4766 21.0234 14.238 21.0234 13.9953C21.0234 13.7536 21.0635 13.5156 21.1438 13.2812C21.225 13.0458 21.3479 12.8094 21.5125 12.5719H21.8688ZM22.8359 12.5719H23.1922C23.3568 12.8094 23.4792 13.0458 23.5594 13.2812C23.6406 13.5156 23.6812 13.7536 23.6812 13.9953C23.6812 14.238 23.6411 14.4766 23.5609 14.7109C23.4807 14.9443 23.3578 15.1813 23.1922 15.4219H22.8359C22.9734 15.1719 23.0755 14.9297 23.1422 14.6953C23.2089 14.4599 23.2422 14.2266 23.2422 13.9953C23.2422 13.762 23.2089 13.5286 23.1422 13.2953C23.0755 13.062 22.9734 12.8208 22.8359 12.5719ZM24.9828 14.4266H25.5031V14.85L25.1969 15.4484H24.8609L24.9828 14.85V14.4266ZM24.9828 13.3391H25.5031V13.9094H24.9828V13.3391Z" fill="#007EC1"/>
</svg>
