<svg width="32" height="32" viewBox="0 0 32 32" fill="none" xmlns="http://www.w3.org/2000/svg">
<rect width="32" height="32" rx="2" fill="#CCE5F3"/>
<path d="M5.4789 11.584C5.2589 11.584 5.0759 11.541 4.9299 11.455C4.7859 11.367 4.6809 11.252 4.6149 11.11C4.5509 10.966 4.5269 10.812 4.5429 10.648C4.5589 10.462 4.6169 10.306 4.7169 10.18C4.8169 10.054 4.9509 9.959 5.1189 9.895C5.2869 9.829 5.4799 9.796 5.6979 9.796C5.8259 9.796 5.9479 9.807 6.0639 9.829C6.1799 9.849 6.2929 9.876 6.4029 9.91L6.4329 9.622C6.4549 9.418 6.4319 9.267 6.3639 9.169C6.2979 9.071 6.1779 9.022 6.0039 9.022C5.8999 9.022 5.8079 9.039 5.7279 9.073C5.6499 9.107 5.5869 9.156 5.5389 9.22C5.4929 9.282 5.4649 9.358 5.4549 9.448H4.7589C4.7789 9.222 4.8469 9.04 4.9629 8.902C5.0789 8.764 5.2269 8.664 5.4069 8.602C5.5889 8.538 5.7879 8.506 6.0039 8.506C6.3859 8.506 6.6679 8.6 6.8499 8.788C7.0319 8.974 7.1049 9.26 7.0689 9.646L6.8949 11.5H6.3429C6.3389 11.434 6.3369 11.368 6.3369 11.302C6.3369 11.236 6.3349 11.17 6.3309 11.104C6.2289 11.262 6.1109 11.382 5.9769 11.464C5.8429 11.544 5.6769 11.584 5.4789 11.584ZM5.6589 11.044C5.7849 11.044 5.8979 11.015 5.9979 10.957C6.0979 10.897 6.1799 10.816 6.2439 10.714C6.3079 10.61 6.3469 10.492 6.3609 10.36C6.2749 10.334 6.1789 10.312 6.0729 10.294C5.9689 10.274 5.8699 10.264 5.7759 10.264C5.6299 10.264 5.5039 10.294 5.3979 10.354C5.2919 10.412 5.2329 10.51 5.2209 10.648C5.2129 10.762 5.2489 10.857 5.3289 10.933C5.4089 11.007 5.5189 11.044 5.6589 11.044Z" fill="#57534F"/>
<rect x="5.62773" y="16.4117" width="2.78931" height="0.244711" transform="rotate(-90 5.62773 16.4117)" fill="#57534F" stroke="#57534F" stroke-width="0.244711"/>
<path d="M5.75 17.5L4.45096 16.0509L7.04904 16.0509L5.75 17.5Z" fill="#57534F"/>
<path d="M5.9248 23.584C5.7628 23.584 5.6178 23.535 5.4898 23.437C5.3618 23.339 5.2678 23.192 5.2078 22.996L5.0098 23.5H4.5958L4.9798 19.384H5.6218L5.4718 20.95C5.5658 20.806 5.6798 20.696 5.8138 20.62C5.9498 20.544 6.0988 20.506 6.2608 20.506C6.4588 20.506 6.6338 20.559 6.7858 20.665C6.9378 20.771 7.0578 20.922 7.1458 21.118C7.2338 21.312 7.2778 21.542 7.2778 21.808C7.2778 21.992 7.2498 22.187 7.1938 22.393C7.1398 22.599 7.0568 22.792 6.9448 22.972C6.8328 23.152 6.6918 23.299 6.5218 23.413C6.3518 23.527 6.1528 23.584 5.9248 23.584ZM5.8888 22.942C6.0148 22.942 6.1238 22.91 6.2158 22.846C6.3078 22.782 6.3848 22.698 6.4468 22.594C6.5088 22.488 6.5548 22.373 6.5848 22.249C6.6148 22.125 6.6298 22.003 6.6298 21.883C6.6298 21.657 6.5768 21.477 6.4708 21.343C6.3648 21.209 6.2278 21.142 6.0598 21.142C5.9598 21.142 5.8598 21.168 5.7598 21.22C5.6618 21.27 5.5778 21.343 5.5078 21.439C5.4398 21.535 5.3998 21.652 5.3878 21.79L5.3518 22.21C5.3398 22.352 5.3568 22.478 5.4028 22.588C5.4488 22.698 5.5148 22.785 5.6008 22.849C5.6868 22.911 5.7828 22.942 5.8888 22.942Z" fill="#57534F"/>
<rect x="9.75" y="8.69995" width="11" height="3" fill="#80BEE0"/>
<rect x="9.75" y="14.5" width="18" height="3" fill="#007EC1"/>
<rect x="9.75" y="20.2999" width="11" height="3" fill="#80BEE0"/>
</svg>
