<svg width="29" height="24" viewBox="0 0 29 24" fill="none" xmlns="http://www.w3.org/2000/svg">
<path d="M1.98622 5.084C1.76622 5.084 1.58322 5.041 1.43722 4.955C1.29322 4.867 1.18822 4.752 1.12222 4.61C1.05822 4.466 1.03422 4.312 1.05022 4.148C1.06622 3.962 1.12422 3.806 1.22422 3.68C1.32422 3.554 1.45822 3.459 1.62622 3.395C1.79422 3.329 1.98722 3.296 2.20522 3.296C2.33322 3.296 2.45522 3.307 2.57122 3.329C2.68722 3.349 2.80022 3.376 2.91022 3.41L2.94022 3.122C2.96222 2.918 2.93922 2.767 2.87122 2.669C2.80522 2.571 2.68522 2.522 2.51122 2.522C2.40722 2.522 2.31522 2.539 2.23522 2.573C2.15722 2.607 2.09422 2.656 2.04622 2.72C2.00022 2.782 1.97222 2.858 1.96222 2.948H1.26622C1.28622 2.722 1.35422 2.54 1.47022 2.402C1.58622 2.264 1.73422 2.164 1.91422 2.102C2.09622 2.038 2.29522 2.006 2.51122 2.006C2.89322 2.006 3.17522 2.1 3.35722 2.288C3.53922 2.474 3.61222 2.76 3.57622 3.146L3.40222 5H2.85022C2.84622 4.934 2.84422 4.868 2.84422 4.802C2.84422 4.736 2.84222 4.67 2.83822 4.604C2.73622 4.762 2.61822 4.882 2.48422 4.964C2.35022 5.044 2.18422 5.084 1.98622 5.084ZM2.16622 4.544C2.29222 4.544 2.40522 4.515 2.50522 4.457C2.60522 4.397 2.68722 4.316 2.75122 4.214C2.81522 4.11 2.85422 3.992 2.86822 3.86C2.78222 3.834 2.68622 3.812 2.58022 3.794C2.47622 3.774 2.37722 3.764 2.28322 3.764C2.13722 3.764 2.01122 3.794 1.90522 3.854C1.79922 3.912 1.74022 4.01 1.72822 4.148C1.72022 4.262 1.75622 4.357 1.83622 4.433C1.91622 4.507 2.02622 4.544 2.16622 4.544Z" fill="#57534F"/>
<rect x="2.0733" y="13.9053" width="6.72121" height="0.36828" transform="rotate(-90 2.0733 13.9053)" fill="#57534F" stroke="#57534F" stroke-width="0.36828"/>
<path d="M2.25721 16.3467L0.302204 12.9605L4.21221 12.9605L2.25721 16.3467Z" fill="#57534F"/>
<path d="M2.43212 21.4307C2.27012 21.4307 2.12512 21.3817 1.99712 21.2837C1.86912 21.1857 1.77512 21.0387 1.71512 20.8427L1.51712 21.3467H1.10312L1.48712 17.2307H2.12912L1.97912 18.7967C2.07312 18.6527 2.18712 18.5427 2.32112 18.4667C2.45712 18.3907 2.60612 18.3527 2.76812 18.3527C2.96612 18.3527 3.14112 18.4057 3.29312 18.5117C3.44512 18.6177 3.56512 18.7687 3.65312 18.9647C3.74112 19.1587 3.78512 19.3887 3.78512 19.6547C3.78512 19.8387 3.75712 20.0337 3.70112 20.2397C3.64712 20.4457 3.56412 20.6387 3.45212 20.8187C3.34012 20.9987 3.19912 21.1457 3.02912 21.2597C2.85912 21.3737 2.66012 21.4307 2.43212 21.4307ZM2.39612 20.7887C2.52212 20.7887 2.63112 20.7567 2.72312 20.6927C2.81512 20.6287 2.89212 20.5447 2.95412 20.4407C3.01612 20.3347 3.06212 20.2197 3.09212 20.0957C3.12212 19.9717 3.13712 19.8497 3.13712 19.7297C3.13712 19.5037 3.08412 19.3237 2.97812 19.1897C2.87212 19.0557 2.73512 18.9887 2.56712 18.9887C2.46712 18.9887 2.36712 19.0147 2.26712 19.0667C2.16912 19.1167 2.08512 19.1897 2.01512 19.2857C1.94712 19.3817 1.90712 19.4987 1.89512 19.6367L1.85912 20.0567C1.84712 20.1987 1.86412 20.3247 1.91012 20.4347C1.95612 20.5447 2.02212 20.6317 2.10812 20.6957C2.19412 20.7577 2.29012 20.7887 2.39612 20.7887Z" fill="#57534F"/>
<rect x="6.51465" y="1.67334" width="12" height="4" fill="#80BEE0"/>
<rect x="6.51465" y="9.67334" width="22" height="4" fill="#007EC1"/>
<rect x="6.51465" y="17.6733" width="12" height="4" fill="#80BEE0"/>
</svg>
