<svg width="32" height="32" viewBox="0 0 32 32" fill="none" xmlns="http://www.w3.org/2000/svg">
<rect width="32" height="32" rx="2" fill="#CCE5F3"/>
<path d="M20.968 13.0996C20.9227 13.0381 20.8607 12.9909 20.7893 12.9635L15.684 11.032C15.6357 11.0109 15.5835 11 15.5308 11C15.4781 11 15.426 11.0109 15.3777 11.032L10.2723 12.9975C10.2048 13.0154 10.1432 13.0506 10.0936 13.0996C10.0342 13.1715 10.0011 13.2616 10 13.3549V19.5835C10.0011 19.6684 10.0276 19.7511 10.0762 19.8209C10.1247 19.8907 10.193 19.9443 10.2723 19.9749L15.3777 21.9404H15.684L20.7893 19.9749C20.8686 19.9443 20.9369 19.8907 20.9855 19.8209C21.034 19.7511 21.0605 19.6684 21.0616 19.5835V13.3889C21.0688 13.2841 21.0353 13.1804 20.968 13.0996Z" stroke="#57534F" stroke-linecap="round" stroke-linejoin="round"/>
<path d="M15.5305 22V15.2269M15.5305 15.2269L10.0933 13.1337M15.5305 15.2269L20.9677 13.1337" stroke="#57534F" stroke-linecap="round" stroke-linejoin="round"/>
</svg>
