<svg width="43" height="22" viewBox="0 0 43 22" fill="none" xmlns="http://www.w3.org/2000/svg">
<rect width="43" height="21.3" rx="2" fill="#CCE5F3"/>
<path d="M27.8895 6.65373C27.8362 6.58142 27.7634 6.5259 27.6795 6.49373L21.6795 4.22373C21.6227 4.19895 21.5615 4.18616 21.4995 4.18616C21.4376 4.18616 21.3763 4.19895 21.3195 4.22373L15.3195 6.53373C15.2402 6.55472 15.1678 6.59609 15.1095 6.65373C15.0397 6.73823 15.0008 6.8441 14.9995 6.95373V14.2737C15.0008 14.3736 15.032 14.4708 15.089 14.5528C15.1461 14.6348 15.2263 14.6978 15.3195 14.7337L21.3195 17.0437H21.6795L27.6795 14.7337C27.7727 14.6978 27.853 14.6348 27.91 14.5528C27.967 14.4708 27.9982 14.3736 27.9995 14.2737V6.99373C28.008 6.87046 27.9686 6.74868 27.8895 6.65373Z" stroke="#57534F" stroke-linecap="round" stroke-linejoin="round"/>
<path d="M21.4994 17.1137V9.15373M21.4994 9.15373L15.1094 6.69373M21.4994 9.15373L27.8894 6.69373" stroke="#57534F" stroke-linecap="round" stroke-linejoin="round"/>
</svg>
