<svg width="32" height="32" viewBox="0 0 32 32" fill="none" xmlns="http://www.w3.org/2000/svg">
<rect width="32" height="32" rx="2" fill="#CCE5F3"/>
<path d="M4 16.2595V11.0125H7.25314V15.525H10.7687V11.0125H13.3943L13.3661 11.1305C13.3114 11.3599 12.351 15.6112 12.2342 16.1415C12.169 16.4373 12.1284 16.6921 12.144 16.7077C12.1596 16.7233 12.8021 16.8228 13.5717 16.9289L14.9711 17.1219L15.1845 16.8722C15.787 16.1674 16.811 16.1554 17.4023 16.8462C18.1773 17.7516 17.5043 19.1654 16.3008 19.16C15.8737 19.1581 15.5318 19.0009 15.2107 18.659L14.9566 18.3883L13.559 18.5864C12.7904 18.6953 12.1497 18.7962 12.1354 18.8106C12.0806 18.8653 12.3618 19.5552 12.5877 19.9201C13.0027 20.5906 13.5028 21.0168 14.2345 21.3233C14.4206 21.4012 14.5827 21.4743 14.5947 21.4857C14.6067 21.4971 13.7508 21.5064 12.6926 21.5064H10.7687V17.6236H7.25314V21.5064H4L4 16.2595Z" fill="#007EC1" stroke="#007EC1" stroke-width="0.2"/>
<path d="M18.4048 21.4609C18.4322 21.4356 18.5752 21.3758 18.7225 21.328C19.9782 20.9209 20.9454 19.3662 20.9465 17.7531C20.9472 16.8216 20.6663 16.0973 20.0548 15.4536C19.6395 15.0164 19.198 14.7381 18.6119 14.544C18.2268 14.4165 18.1186 14.4047 17.3002 14.4011C16.4636 14.3974 16.3796 14.4062 15.9486 14.5433C15.6958 14.6237 15.4535 14.703 15.4101 14.7196C15.3592 14.7392 15.3395 14.7246 15.3545 14.6785C15.3672 14.6392 15.4522 14.2824 15.5432 13.8856L15.7089 13.1641H20.4746V11L22.9277 11.0261C25.2145 11.0505 25.4092 11.0598 25.8004 11.1638C26.8885 11.4528 27.5292 12.0351 27.8572 13.0329C27.9783 13.4013 27.9958 13.5425 27.9996 14.1872C28.0028 14.7356 27.9805 15.0083 27.9115 15.2628C27.6112 16.3714 26.8117 17.1486 25.6692 17.4425C25.2491 17.5505 24.2548 17.6188 23.0587 17.6218L22.1535 17.6241V21.5069H20.2541C19.1624 21.5069 18.3759 21.4874 18.4045 21.4609L18.4048 21.4609ZM24.0469 15.3879C24.4127 15.2792 24.741 14.9626 24.8298 14.6328C24.9965 14.0136 24.6513 13.3874 24.0488 13.2161C23.9444 13.1864 23.4753 13.147 23.0064 13.1286L22.1537 13.0951V15.5415L22.9585 15.5068C23.4449 15.4858 23.8756 15.4388 24.0469 15.3879L24.0469 15.3879Z" fill="#007EC1" stroke="#007EC1" stroke-width="0.2"/>
</svg>
