<svg width="32" height="32" viewBox="0 0 32 32" fill="none" xmlns="http://www.w3.org/2000/svg">
<rect width="32" height="32" rx="2" fill="#CCE5F3"/>
<rect x="8.95654" y="11" width="13" height="10" fill="#57534F"/>
<path d="M9.70048 24C9.23285 24 8.83239 23.8258 8.49909 23.4773C8.1658 23.1289 7.99943 22.7105 8 22.2222V9.77778C8 9.28889 8.16665 8.87022 8.49994 8.52178C8.83324 8.17333 9.23342 7.99941 9.70048 8H21.6039C22.0715 8 22.472 8.17422 22.8053 8.52267C23.1385 8.87111 23.3049 9.28948 23.3043 9.77778V22.2222C23.3043 22.7111 23.1377 23.1298 22.8044 23.4782C22.4711 23.8267 22.0709 24.0006 21.6039 24H9.70048ZM10.5507 20.4444H20.7536L17.5652 16L15.0145 19.5556L13.1014 16.8889L10.5507 20.4444Z" fill="#80BEE0"/>
</svg>
