<svg width="21" height="21" viewBox="0 0 21 21" fill="none" xmlns="http://www.w3.org/2000/svg">
<rect x="1" y="3" width="18.9141" height="16.3" fill="#57534F"/>
<path d="M2.23189 21C1.61812 21 1.09251 20.7713 0.65506 20.314C0.21761 19.8567 -0.000742067 19.3076 1.89464e-06 18.6667V2.33333C1.89464e-06 1.69167 0.218727 1.14217 0.656176 0.684835C1.09362 0.227502 1.61886 -0.000775797 2.23189 1.98076e-06H17.8551C18.4688 1.98076e-06 18.9944 0.228669 19.4319 0.686002C19.8693 1.14334 20.0877 1.69245 20.087 2.33333V18.6667C20.087 19.3083 19.8682 19.8578 19.4308 20.3152C18.9933 20.7725 18.4681 21.0008 17.8551 21H2.23189ZM3.34783 16.3333H16.7391L12.5543 10.5L9.20652 15.1667L6.69565 11.6667L3.34783 16.3333Z" fill="#80BEE0"/>
</svg>
