<svg width="44" height="18" viewBox="0 0 44 18" fill="none" xmlns="http://www.w3.org/2000/svg">
<rect y="2.86194" width="22" height="3" fill="#007EC1"/>
<rect y="7.86194" width="24.1779" height="2.63846" fill="#007EC1"/>
<rect y="12.5004" width="15.3169" height="2.63846" fill="#007EC1"/>
<rect x="27.7715" y="3.84766" width="11.8645" height="9.78018" fill="black" fill-opacity="0.66"/>
<path d="M28.7334 16.0009C28.3056 16.0009 27.9392 15.8484 27.6343 15.5435C27.3294 15.2386 27.1772 14.8725 27.1777 14.4452V3.55565C27.1777 3.12785 27.3302 2.76149 27.6351 2.45659C27.94 2.15168 28.3061 1.99948 28.7334 2H39.623C40.0508 2 40.4171 2.15246 40.722 2.45736C41.0269 2.76227 41.1791 3.12837 41.1786 3.55565V14.4452C41.1786 14.873 41.0262 15.2394 40.7213 15.5443C40.4163 15.8492 40.0502 16.0014 39.623 16.0009H28.7334ZM29.5112 12.8896H38.8451L35.9283 9.00044L33.5948 12.1117L31.8447 9.77827L29.5112 12.8896Z" fill="#80BEE0"/>
</svg>
