<svg width="32" height="32" viewBox="0 0 32 32" fill="none" xmlns="http://www.w3.org/2000/svg">
<rect width="32" height="32" rx="2" fill="#CCE5F3"/>
<rect x="3" y="12.2" width="14" height="2" fill="#007EC1"/>
<rect x="3" y="15.5" width="15" height="2" fill="#007EC1"/>
<rect x="3" y="18.7999" width="9" height="2" fill="#007EC1"/>
<rect x="20.8223" y="14" width="7" height="6" fill="black" fill-opacity="0.66"/>
<path d="M21 21C20.725 21 20.4895 20.902 20.2935 20.706C20.0975 20.51 19.9997 20.2747 20 20V13C20 12.725 20.098 12.4895 20.294 12.2935C20.49 12.0975 20.7253 11.9997 21 12H28C28.275 12 28.5105 12.098 28.7065 12.294C28.9025 12.49 29.0003 12.7253 29 13V20C29 20.275 28.902 20.5105 28.706 20.7065C28.51 20.9025 28.2747 21.0003 28 21H21ZM21.5 19H27.5L25.625 16.5L24.125 18.5L23 17L21.5 19Z" fill="#80BEE0"/>
</svg>
