<svg width="1657" height="1657" viewBox="0 0 1657 1657" fill="none" xmlns="http://www.w3.org/2000/svg">
<path d="M1244.2 1181.63C1244.2 1181.63 1244.2 1181.63 1242.72 1181.63C1241.24 1181.63 1239.76 1174.73 1237.05 1167.09C1215.52 1108.42 1186.63 1052.71 1151.08 1001.31C1115.43 956.08 1075.04 914.79 1030.62 878.138C956.222 821.142 877.851 769.526 796.106 723.683C721.742 680.866 651.412 631.396 585.979 575.88C534.001 534.773 490.568 483.893 458.129 426.106C415.02 347.524 388.908 273.869 386.691 223.616C386.691 212.284 386.691 207.111 387.923 205.633C389.155 204.155 392.85 207.111 399.747 218.442C425.062 260.143 456.257 297.976 492.371 330.773C563.222 392.661 642.106 444.698 726.885 485.474C806.453 525.873 923.956 588.936 959.675 610.121C1051.43 664.923 1135.86 731.142 1210.94 807.192C1225.72 822.219 1255.28 855.228 1258.48 859.909C1258.48 861.387 1253.56 865.082 1245.18 870.009C1220.23 884.063 1198.37 902.997 1180.89 925.681L1178.92 928.391C1181.99 926.257 1184.87 923.868 1187.54 921.247C1208.79 902.608 1232.7 887.248 1258.48 875.675L1268.83 870.994L1283.61 890.209C1299.15 911.172 1313.54 932.964 1326.72 955.488C1330.66 962.386 1335.34 970.515 1335.34 970.761C1335.34 971.008 1331.89 972.732 1330.42 972.978C1310.95 980.63 1292.51 990.641 1275.48 1002.79C1265.87 1009.47 1257.53 1017.81 1250.85 1027.42C1255.4 1026.55 1259.86 1025.23 1264.15 1023.48C1284.23 1016.25 1305.39 1012.51 1326.72 1012.39C1337.08 1012.43 1347.4 1013.58 1357.51 1015.84C1369.65 1018.52 1381.29 1023.09 1392 1029.39C1387.24 1033.02 1382.12 1036.16 1376.73 1038.75C1347.63 1054.29 1320.64 1073.5 1296.42 1095.9C1274.05 1115.72 1257.52 1141.27 1248.63 1169.8C1246.66 1178.43 1245.18 1181.63 1243.46 1181.63" fill="#007EC1"/>
<path d="M1234.84 1472.77L1193.45 1378.92C1197.11 1272.97 1171.54 1168.06 1119.55 1075.68C1097.57 1040.15 1072.86 1006.38 1045.65 974.677C1006.87 931.459 964.057 892.031 917.801 856.927C872.685 824.951 825.986 795.27 777.88 767.998C777.88 767.998 703.979 724.15 638.453 675.375C577.043 632.539 522.971 580.047 478.332 519.935C450.61 482.991 427.373 442.886 409.111 400.461C386.869 350.282 372.256 297.059 365.755 242.557V242.557C380.433 314.87 406.897 384.277 444.091 448.004C477.63 500.044 517.515 547.707 562.827 589.895V589.895C562.827 589.895 622.194 642.119 669.245 674.39L689.198 687.692C713.832 703.95 746.595 724.889 760.39 732.525C760.39 732.525 871.489 798.791 968.3 872.2C1014.85 907.41 1057.76 947.187 1096.4 990.935C1117.14 1016.55 1135.37 1044.1 1150.84 1073.21C1188.53 1143.39 1213.07 1219.86 1223.26 1298.86L1235.33 1472.77H1234.84Z" fill="#007EC1"/>
<path d="M1187.03 1270.03C1182.8 1266.18 1179.29 1261.59 1176.68 1256.49V1256.49C1148.04 1211.31 1107.8 1174.65 1060.16 1150.31C1041.73 1142.75 1022.46 1137.37 1002.77 1134.3C994.589 1133.39 986.362 1132.98 978.134 1133.07H967.295H944.632V1120.01C942.148 1090.19 928.514 1062.39 906.449 1042.17L899.305 1036.01L905.956 1033.06C924.105 1025.65 943.31 1021.16 962.861 1019.75C977.641 1019.75 979.612 1017.78 979.612 1017.29C979.612 1016.8 976.902 1017.29 954.978 1015.57H951.036C933.188 1015.79 915.454 1018.45 898.32 1023.45L885.757 1026.65L871.469 1017.04C848.674 1002.12 825.072 988.47 800.77 976.153C794.233 973.077 787.97 969.451 782.048 965.314C799.669 958.623 818.029 954.074 836.735 951.765C861.863 947.31 887.335 945.084 912.854 945.114C924.877 945.088 936.89 945.829 948.819 947.331H952.022C946.193 945.727 940.269 944.493 934.285 943.636C912.372 940.161 890.207 938.513 868.02 938.709C833.839 938.585 799.739 942.053 766.282 949.055L751.009 952.504L719.478 935.507C652.937 901.486 589.473 861.759 529.797 816.771C490.359 784.868 452.926 750.561 417.713 714.048C405.061 700.485 393.137 686.259 381.994 671.431C381.994 671.431 376.821 663.302 368.938 651.478C330.174 595.088 305.819 530.059 298.003 462.079C290.188 394.099 299.149 325.239 324.104 261.524C335.092 232.331 349.655 204.612 367.46 179C369.315 190.74 370.385 202.59 370.662 214.473C371 234.239 373.061 253.939 376.821 273.348C393.412 351.31 424.226 425.547 467.72 492.343C481.515 514.267 505.163 547.277 519.205 564.52C560.589 616.251 679.078 707.889 790.177 774.155C844.228 805.088 896.381 839.226 946.356 876.385C987.458 906.322 1024.76 941.147 1057.45 980.094C1088.22 1017.02 1114.51 1057.46 1135.79 1100.55C1156.41 1141.95 1171.88 1185.71 1181.86 1230.87C1185.74 1243.22 1187.73 1256.1 1187.77 1269.05" fill="#007EC1"/>
<path d="M1200.84 1478.68C1114.92 1473.5 1029.33 1463.88 944.403 1449.86C817.247 1429.64 692.458 1396.63 571.938 1351.33C514.808 1330.13 459.523 1304.26 406.645 1273.98C337.916 1233.08 300.473 1193.67 295.053 1157.7C294.199 1147.34 296.177 1136.94 300.776 1127.61C305.375 1118.28 312.423 1110.38 321.165 1104.74C350.726 1082.08 397.53 1068.53 467.737 1061.63C467.737 1061.63 555.926 1055.97 621.945 1049.07C649.422 1047.24 676.651 1042.7 703.237 1035.52C707.699 1034.67 712.014 1033.18 716.046 1031.09C718.138 1030.25 720.031 1028.99 721.602 1027.38C723.172 1025.76 724.385 1023.84 725.161 1021.73C725.467 1020.33 725.471 1018.88 725.174 1017.48C724.876 1016.07 724.284 1014.75 723.437 1013.6C689.934 988.962 614.555 966.545 541.638 946.345L529.814 942.65C452.957 920.973 362.057 898.802 308.109 885.253L265 874.661C266.232 874.661 369.694 889.688 481.532 913.582C546.812 928.116 602.484 942.65 646.332 957.184C686.05 967.729 723.133 986.438 755.214 1012.12C757.314 1014.26 758.86 1016.89 759.719 1019.76C760.577 1022.64 760.722 1025.68 760.141 1028.62C758.17 1035.77 749.795 1042.66 735.507 1047.84H734.029C664.279 1067.52 592.728 1080.15 520.453 1085.53C494.242 1087.61 468.222 1091.65 442.61 1097.6C407.137 1106.47 364.521 1122.23 363.289 1149.08C362.057 1175.93 398.762 1214.12 461.825 1251.56C543.119 1296.18 629.458 1330.91 719.002 1355.02C862.913 1393.95 1011.36 1413.58 1160.44 1413.4V1413.4L1200.84 1478.68Z" fill="#007EC1"/>
</svg>
