<svg width="43" height="18" viewBox="0 0 43 18" fill="none" xmlns="http://www.w3.org/2000/svg">
<path d="M0 1C0 0.447715 0.447715 0 1 0H41.9282C42.4805 0 42.9282 0.447715 42.9282 1V3.69238H0V1Z" fill="#007EC1"/>
<mask id="path-2-inside-1_22_841" fill="white">
<path d="M0 3.69238H42.9282V15.0557C42.9282 16.1602 42.0328 17.0557 40.9282 17.0557H2C0.89543 17.0557 0 16.1602 0 15.0557V3.69238Z"/>
</mask>
<path fill-rule="evenodd" clip-rule="evenodd" d="M0.45 4.16585H-0.45H-0.9V3.69238H-0.45H0H0.45H0.9V4.16585H0.45ZM0.9 5.11279H0.45H-0.45H-0.9V6.05973H-0.45H0.45H0.9V5.11279ZM0.9 7.00667H0.45H-0.45H-0.9V7.95361H-0.45H0.45H0.9V7.00667ZM0.9 8.90055H0.45H-0.45H-0.9V9.84749H-0.45H0.45H0.9V8.90055ZM0.9 10.7944H0.45H-0.45H-0.9V11.7414H-0.45H0.45H0.9V10.7944ZM0.9 12.6883H0.45H-0.45H-0.9V13.6353H-0.45H0.45H0.9V12.6883ZM0.9 14.5822H0.45H-0.45H-0.9V15.0557C-0.9 15.0797 -0.899705 15.1037 -0.899118 15.1277C-0.895006 15.2954 -0.876577 15.4601 -0.844821 15.6207L-0.403376 15.5333L0.479513 15.3587L0.920957 15.2713C0.907302 15.2023 0.9 15.1303 0.9 15.0557V14.5822ZM-0.0370669 16.4172L0.710805 15.9166L1.08474 15.6662C1.11495 15.7113 1.14843 15.7541 1.18483 15.7943C1.20939 15.8213 1.23528 15.8472 1.26238 15.8717C1.30222 15.9078 1.34469 15.941 1.38946 15.9709L1.13911 16.3449L0.638424 17.0927L0.388081 17.4667C0.0722197 17.2552 -0.199539 16.9834 -0.411003 16.6676L-0.0370669 16.4172ZM1.52234 17.459L1.69701 16.5762L1.78434 16.1347C1.85336 16.1484 1.92538 16.1557 2 16.1557M2.51221 16.6057V17.5057V17.9557H2C1.97155 17.9557 1.94318 17.9553 1.91489 17.9544C1.75174 17.9497 1.59136 17.9314 1.43501 17.9005L1.52234 17.459M3.53664 17.9557H4.56107V17.5057V16.6057V16.1557H3.53664V16.6057V17.5057V17.9557ZM2.51221 16.6057V16.1557ZM2 16.1557H2.51221ZM5.58549 16.1557V16.6057V17.5057V17.9557H6.60992V17.5057V16.6057V16.1557H5.58549ZM7.63435 16.1557V16.6057V17.5057V17.9557H8.65877V17.5057V16.6057V16.1557H7.63435ZM9.6832 16.1557V16.6057V17.5057V17.9557H10.7076V17.5057V16.6057V16.1557H9.6832ZM11.7321 16.1557V16.6057V17.5057V17.9557H12.7565V17.5057V16.6057V16.1557H11.7321ZM13.7809 16.1557V16.6057V17.5057V17.9557H14.8053V17.5057V16.6057V16.1557H13.7809ZM15.8298 16.1557V16.6057V17.5057V17.9557H16.8542V17.5057V16.6057V16.1557H15.8298ZM17.8786 16.1557V16.6057V17.5057V17.9557H18.903V17.5057V16.6057V16.1557H17.8786ZM19.9275 16.1557V16.6057V17.5057V17.9557H20.9519V17.5057V16.6057V16.1557H19.9275ZM21.9763 16.1557V16.6057V17.5057V17.9557H23.0008V17.5057V16.6057V16.1557H21.9763ZM24.0252 16.1557V16.6057V17.5057V17.9557H25.0496V17.5057V16.6057V16.1557H24.0252ZM26.074 16.1557V16.6057V17.5057V17.9557H27.0985V17.5057V16.6057V16.1557H26.074ZM28.1229 16.1557V16.6057V17.5057V17.9557H29.1473V17.5057V16.6057V16.1557H28.1229ZM30.1717 16.1557V16.6057V17.5057V17.9557H31.1962V17.5057V16.6057V16.1557H30.1717ZM32.2206 16.1557V16.6057V17.5057V17.9557H33.245V17.5057V16.6057V16.1557H32.2206ZM34.2695 16.1557V16.6057V17.5057V17.9557H35.2939V17.5057V16.6057V16.1557H34.2695ZM36.3183 16.1557V16.6057V17.5057V17.9557H37.3427V17.5057V16.6057V16.1557H36.3183ZM38.3672 16.1557V16.6057V17.5057V17.9557H39.3916V17.5057V16.6057V16.1557H38.3672ZM40.416 16.1557V16.6057V17.5057V17.9557H40.9282C40.9764 17.9557 41.0243 17.9545 41.0719 17.9521C41.2149 17.9451 41.3556 17.9277 41.4932 17.9005L41.4059 17.459L41.2312 16.5762L41.1439 16.1347C41.0749 16.1484 41.0028 16.1557 40.9282 16.1557H40.416ZM42.2898 17.0927L41.7891 16.3449L41.5388 15.9709C41.5689 15.9508 41.5979 15.9292 41.6258 15.9062C41.6827 15.8595 41.7349 15.8071 41.7815 15.7499C41.8035 15.723 41.8241 15.6951 41.8435 15.6662L42.2174 15.9166L42.9653 16.4172L43.3392 16.6676C43.2864 16.7465 43.2297 16.8228 43.1696 16.896C43.0454 17.0471 42.9062 17.1854 42.7543 17.3086C42.6855 17.3645 42.614 17.4172 42.5401 17.4667L42.2898 17.0927ZM42.0282 15.0557C42.0282 15.1303 42.0209 15.2023 42.0073 15.2713L42.4487 15.3587L43.3316 15.5333L43.773 15.6206C43.7983 15.4928 43.8152 15.3623 43.8231 15.2297C43.8265 15.1721 43.8282 15.114 43.8282 15.0557V14.5822H43.3782H42.4782H42.0282V15.0557ZM42.0282 13.6353H42.4782H43.3782H43.8282V12.6883H43.3782H42.4782H42.0282V13.6353ZM42.0282 11.7414H42.4782H43.3782H43.8282V10.7944H43.3782H42.4782H42.0282V11.7414ZM42.0282 9.84749H42.4782H43.3782H43.8282V8.90055H43.3782H42.4782H42.0282V9.84749ZM42.0282 7.95361H42.4782H43.3782H43.8282V7.00667H43.3782H42.4782H42.0282V7.95361ZM42.0282 6.05973H42.4782H43.3782H43.8282V5.11279H43.3782H42.4782H42.0282V6.05973ZM42.0282 4.16585H42.4782H43.3782H43.8282V3.69238H43.3782H42.9282H42.4782H42.0282V4.16585Z" fill="#007EC1" mask="url(#path-2-inside-1_22_841)"/>
<path d="M40.4531 3L39.1946 1.04977L41.7116 1.04977L40.4531 3Z" fill="#57534F"/>
<rect x="4" y="6" width="24.1779" height="2.63846" fill="#80BEE0"/>
<rect x="4" y="10.3385" width="15.3169" height="2.63846" fill="#80BEE0"/>
</svg>
