<svg width="32" height="32" viewBox="0 0 32 32" fill="none" xmlns="http://www.w3.org/2000/svg">
<rect width="32" height="32" rx="2" fill="#CCE5F3"/>
<path d="M3 9C3 8.44772 3.44772 8 4 8H28C28.5523 8 29 8.44772 29 9V11.6924H3V9Z" fill="#007EC1"/>
<mask id="path-3-inside-1_70_574" fill="white">
<path d="M3 11.6924H29V21.6924C29 22.797 28.1046 23.6924 27 23.6924H5C3.89543 23.6924 3 22.797 3 21.6924V11.6924Z"/>
</mask>
<path fill-rule="evenodd" clip-rule="evenodd" d="M3.45 12.1924H2.55H2.1V11.6924H2.55H3H3.45H3.9V12.1924H3.45ZM3.9 13.1924H3.45H2.55H2.1V14.1924H2.55H3.45H3.9V13.1924ZM3.9 15.1924H3.45H2.55H2.1V16.1924H2.55H3.45H3.9V15.1924ZM3.9 17.1924H3.45H2.55H2.1V18.1924H2.55H3.45H3.9V17.1924ZM3.9 19.1924H3.45H2.55H2.1V20.1924H2.55H3.45H3.9V19.1924ZM3.9 21.1924H3.45H2.55H2.1V21.6924C2.1 21.7164 2.1003 21.7405 2.10088 21.7644C2.10499 21.9321 2.12342 22.0968 2.15518 22.2574L2.59662 22.17L3.47951 21.9954L3.92096 21.908C3.9073 21.839 3.9 21.767 3.9 21.6924V21.1924ZM2.96293 23.054L3.7108 22.5533L4.08474 22.3029C4.11495 22.3481 4.14843 22.3909 4.18483 22.431C4.20975 22.4585 4.23604 22.4847 4.26359 22.5095C4.30308 22.5452 4.34515 22.578 4.38946 22.6076L4.13911 22.9816L3.63843 23.7294L3.38808 24.1034C3.24002 24.0043 3.10165 23.8919 2.97464 23.7679C2.94349 23.7375 2.91302 23.7064 2.88326 23.6747C2.7755 23.5596 2.67703 23.4358 2.589 23.3043L2.96293 23.054ZM5 22.7924C4.92538 22.7924 4.85336 22.7851 4.78434 22.7714L4.69701 23.2129L4.52234 24.0958L4.43501 24.5372C4.59156 24.5682 4.75215 24.5865 4.91552 24.5912C4.9436 24.592 4.97176 24.5924 5 24.5924H5.5V24.1424V23.2424V22.7924H5ZM6.5 22.7924V23.2424V24.1424V24.5924H7.5V24.1424V23.2424V22.7924H6.5ZM8.5 22.7924V23.2424V24.1424V24.5924H9.5V24.1424V23.2424V22.7924H8.5ZM10.5 22.7924V23.2424V24.1424V24.5924H11.5V24.1424V23.2424V22.7924H10.5ZM12.5 22.7924V23.2424V24.1424V24.5924H13.5V24.1424V23.2424V22.7924H12.5ZM14.5 22.7924V23.2424V24.1424V24.5924H15.5V24.1424V23.2424V22.7924H14.5ZM16.5 22.7924V23.2424V24.1424V24.5924H17.5V24.1424V23.2424V22.7924H16.5ZM18.5 22.7924V23.2424V24.1424V24.5924H19.5V24.1424V23.2424V22.7924H18.5ZM20.5 22.7924V23.2424V24.1424V24.5924H21.5V24.1424V23.2424V22.7924H20.5ZM22.5 22.7924V23.2424V24.1424V24.5924H23.5V24.1424V23.2424V22.7924H22.5ZM24.5 22.7924V23.2424V24.1424V24.5924H25.5V24.1424V23.2424V22.7924H24.5ZM26.5 22.7924V23.2424V24.1424V24.5924H27C27.0241 24.5924 27.0481 24.5921 27.072 24.5915C27.2397 24.5874 27.4045 24.569 27.565 24.5372L27.4777 24.0958L27.303 23.2129L27.2157 22.7714C27.1466 22.7851 27.0746 22.7924 27 22.7924H26.5ZM28.3616 23.7294L27.8609 22.9816L27.6105 22.6076C27.6557 22.5774 27.6985 22.5439 27.7386 22.5076C27.7719 22.4773 27.8034 22.4451 27.8328 22.4111C27.8624 22.3768 27.89 22.3407 27.9153 22.3029L28.2892 22.5533L29.0371 23.054L29.411 23.3043C29.3317 23.4227 29.2439 23.535 29.1485 23.6402C29.0685 23.7285 28.983 23.8118 28.8927 23.8896C28.8037 23.9664 28.7099 24.0378 28.6119 24.1034L28.3616 23.7294ZM28.1 21.6924C28.1 21.767 28.0927 21.839 28.079 21.908L28.5205 21.9954L29.4034 22.17L29.8448 22.2574C29.8736 22.1121 29.8914 21.9634 29.8976 21.8122C29.8992 21.7724 29.9 21.7325 29.9 21.6924V21.1924H29.45H28.55H28.1V21.6924ZM28.1 20.1924H28.55H29.45H29.9V19.1924H29.45H28.55H28.1V20.1924ZM28.1 18.1924H28.55H29.45H29.9V17.1924H29.45H28.55H28.1V18.1924ZM28.1 16.1924H28.55H29.45H29.9V15.1924H29.45H28.55H28.1V16.1924ZM28.1 14.1924H28.55H29.45H29.9V13.1924H29.45H28.55H28.1V14.1924ZM28.1 12.1924H28.55H29.45H29.9V11.6924H29.45H29H28.55H28.1V12.1924Z" fill="#007EC1" mask="url(#path-3-inside-1_70_574)"/>
<path d="M26.4531 11L25.1946 9.04977L27.7116 9.04977L26.4531 11Z" fill="#57534F"/>
<rect x="7" y="14" width="18" height="2.63846" fill="#80BEE0"/>
<rect x="7" y="18.3385" width="9.32" height="2.63846" fill="#80BEE0"/>
</svg>
